<mxfile host="app.diagrams.net" modified="2022-03-25T04:48:08.665Z" agent="5.0 (Macintosh)" etag="uJRczRH4Kb8VQz7kze36" version="17.2.2" type="github">
  <diagram id="-hN-MSK7Q1_RvColJM6n" name="Page-1">
    <mxGraphModel dx="1623" dy="3166" grid="1" gridSize="10" guides="1" tooltips="1" connect="1" arrows="1" fold="1" page="1" pageScale="1" pageWidth="850" pageHeight="1100" math="0" shadow="0">
      <root>
        <mxCell id="0" />
        <mxCell id="1" parent="0" />
        <UserObject label="" link="https://g.foolcdn.com/art/companylogos/square/link.png" id="Oci5rgU2LHDsX-qW9czk-28">
          <mxCell style="rounded=0;whiteSpace=wrap;html=1;" parent="1" vertex="1">
            <mxGeometry x="70" y="-1190" width="660" height="820" as="geometry" />
          </mxCell>
        </UserObject>
        <mxCell id="Oci5rgU2LHDsX-qW9czk-17" value="Privileged Method Calls" style="edgeStyle=orthogonalEdgeStyle;rounded=0;orthogonalLoop=1;jettySize=auto;html=1;exitX=0.5;exitY=1;exitDx=0;exitDy=0;" parent="1" source="Oci5rgU2LHDsX-qW9czk-1" target="Oci5rgU2LHDsX-qW9czk-2" edge="1">
          <mxGeometry relative="1" as="geometry" />
        </mxCell>
        <mxCell id="Oci5rgU2LHDsX-qW9czk-11" style="edgeStyle=orthogonalEdgeStyle;rounded=0;orthogonalLoop=1;jettySize=auto;html=1;entryX=0;entryY=0.5;entryDx=0;entryDy=0;" parent="1" source="Oci5rgU2LHDsX-qW9czk-10" target="Oci5rgU2LHDsX-qW9czk-2" edge="1">
          <mxGeometry relative="1" as="geometry" />
        </mxCell>
        <mxCell id="Oci5rgU2LHDsX-qW9czk-31" value="&lt;div&gt;Public stock &lt;br&gt;&lt;/div&gt;&lt;div&gt;trading calls&lt;/div&gt;" style="edgeLabel;html=1;align=center;verticalAlign=middle;resizable=0;points=[];" parent="Oci5rgU2LHDsX-qW9czk-11" vertex="1" connectable="0">
          <mxGeometry x="0.1429" y="-1" relative="1" as="geometry">
            <mxPoint x="-11" y="-1" as="offset" />
          </mxGeometry>
        </mxCell>
        <mxCell id="Oci5rgU2LHDsX-qW9czk-14" value="" style="group" parent="1" vertex="1" connectable="0">
          <mxGeometry x="480" y="-1120" width="190" height="110" as="geometry" />
        </mxCell>
        <mxCell id="Oci5rgU2LHDsX-qW9czk-12" value="" style="rounded=0;whiteSpace=wrap;html=1;" parent="Oci5rgU2LHDsX-qW9czk-14" vertex="1">
          <mxGeometry width="190" height="110" as="geometry" />
        </mxCell>
        <mxCell id="Oci5rgU2LHDsX-qW9czk-6" value="" style="shape=actor;whiteSpace=wrap;html=1;" parent="Oci5rgU2LHDsX-qW9czk-14" vertex="1">
          <mxGeometry x="30" y="10" width="40" height="60" as="geometry" />
        </mxCell>
        <mxCell id="Oci5rgU2LHDsX-qW9czk-7" value="" style="shape=actor;whiteSpace=wrap;html=1;" parent="Oci5rgU2LHDsX-qW9czk-14" vertex="1">
          <mxGeometry x="80" y="10" width="40" height="60" as="geometry" />
        </mxCell>
        <mxCell id="Oci5rgU2LHDsX-qW9czk-8" value="" style="shape=actor;whiteSpace=wrap;html=1;" parent="Oci5rgU2LHDsX-qW9czk-14" vertex="1">
          <mxGeometry x="130" y="10" width="40" height="60" as="geometry" />
        </mxCell>
        <mxCell id="Oci5rgU2LHDsX-qW9czk-13" value="Admin users" style="text;html=1;strokeColor=none;fillColor=none;align=center;verticalAlign=middle;whiteSpace=wrap;rounded=0;" parent="Oci5rgU2LHDsX-qW9czk-14" vertex="1">
          <mxGeometry x="110" y="80" width="80" height="30" as="geometry" />
        </mxCell>
        <mxCell id="Oci5rgU2LHDsX-qW9czk-19" value="" style="group" parent="1" vertex="1" connectable="0">
          <mxGeometry x="535" y="-850" width="170" height="80" as="geometry" />
        </mxCell>
        <mxCell id="Oci5rgU2LHDsX-qW9czk-1" value="" style="aspect=fixed;perimeter=ellipsePerimeter;html=1;align=center;shadow=0;dashed=0;fontColor=#4277BB;labelBackgroundColor=#ffffff;fontSize=12;spacingTop=3;image;image=img/lib/ibm/blockchain/smart_contract.svg;" parent="Oci5rgU2LHDsX-qW9czk-19" vertex="1">
          <mxGeometry width="80" height="80" as="geometry" />
        </mxCell>
        <mxCell id="Oci5rgU2LHDsX-qW9czk-16" value="K of N Multisig Contract" style="text;html=1;strokeColor=none;fillColor=none;align=center;verticalAlign=middle;whiteSpace=wrap;rounded=0;" parent="Oci5rgU2LHDsX-qW9czk-19" vertex="1">
          <mxGeometry x="85" y="25" width="85" height="30" as="geometry" />
        </mxCell>
        <mxCell id="Oci5rgU2LHDsX-qW9czk-20" value="" style="group" parent="1" vertex="1" connectable="0">
          <mxGeometry x="535" y="-700" width="155" height="80" as="geometry" />
        </mxCell>
        <mxCell id="Oci5rgU2LHDsX-qW9czk-2" value="" style="aspect=fixed;perimeter=ellipsePerimeter;html=1;align=center;shadow=0;dashed=0;fontColor=#4277BB;labelBackgroundColor=#ffffff;fontSize=12;spacingTop=3;image;image=img/lib/ibm/blockchain/smart_contract.svg;" parent="Oci5rgU2LHDsX-qW9czk-20" vertex="1">
          <mxGeometry width="80" height="80" as="geometry" />
        </mxCell>
        <mxCell id="Oci5rgU2LHDsX-qW9czk-18" value="Smart Stock Contract" style="text;html=1;strokeColor=none;fillColor=none;align=center;verticalAlign=middle;whiteSpace=wrap;rounded=0;" parent="Oci5rgU2LHDsX-qW9czk-20" vertex="1">
          <mxGeometry x="85" y="25" width="70" height="30" as="geometry" />
        </mxCell>
        <mxCell id="Oci5rgU2LHDsX-qW9czk-24" value="" style="group" parent="1" vertex="1" connectable="0">
          <mxGeometry x="120" y="-780" width="80" height="270" as="geometry" />
        </mxCell>
        <mxCell id="Oci5rgU2LHDsX-qW9czk-22" value="" style="rounded=0;whiteSpace=wrap;html=1;" parent="Oci5rgU2LHDsX-qW9czk-24" vertex="1">
          <mxGeometry width="80" height="240" as="geometry" />
        </mxCell>
        <mxCell id="Oci5rgU2LHDsX-qW9czk-3" value="" style="shape=actor;whiteSpace=wrap;html=1;" parent="Oci5rgU2LHDsX-qW9czk-24" vertex="1">
          <mxGeometry x="20" y="20" width="40" height="60" as="geometry" />
        </mxCell>
        <mxCell id="Oci5rgU2LHDsX-qW9czk-4" value="" style="shape=actor;whiteSpace=wrap;html=1;" parent="Oci5rgU2LHDsX-qW9czk-24" vertex="1">
          <mxGeometry x="20" y="90" width="40" height="60" as="geometry" />
        </mxCell>
        <mxCell id="Oci5rgU2LHDsX-qW9czk-5" value="" style="shape=actor;whiteSpace=wrap;html=1;" parent="Oci5rgU2LHDsX-qW9czk-24" vertex="1">
          <mxGeometry x="20" y="160" width="40" height="60" as="geometry" />
        </mxCell>
        <mxCell id="Oci5rgU2LHDsX-qW9czk-23" value="investors" style="text;html=1;strokeColor=none;fillColor=none;align=center;verticalAlign=middle;whiteSpace=wrap;rounded=0;" parent="Oci5rgU2LHDsX-qW9czk-24" vertex="1">
          <mxGeometry x="10" y="240" width="60" height="30" as="geometry" />
        </mxCell>
        <mxCell id="Oci5rgU2LHDsX-qW9czk-25" style="edgeStyle=orthogonalEdgeStyle;rounded=0;orthogonalLoop=1;jettySize=auto;html=1;exitX=1;exitY=0.5;exitDx=0;exitDy=0;" parent="1" source="Oci5rgU2LHDsX-qW9czk-22" target="Oci5rgU2LHDsX-qW9czk-10" edge="1">
          <mxGeometry relative="1" as="geometry" />
        </mxCell>
        <mxCell id="Oci5rgU2LHDsX-qW9czk-27" value="" style="group" parent="1" vertex="1" connectable="0">
          <mxGeometry x="260" y="-713" width="130" height="130" as="geometry" />
        </mxCell>
        <mxCell id="Oci5rgU2LHDsX-qW9czk-10" value="" style="shadow=0;dashed=0;html=1;strokeColor=none;fillColor=#4495D1;labelPosition=center;verticalLabelPosition=bottom;verticalAlign=top;align=center;outlineConnect=0;shape=mxgraph.veeam.2d.web_ui;" parent="Oci5rgU2LHDsX-qW9czk-27" vertex="1">
          <mxGeometry width="130" height="107.05882352941175" as="geometry" />
        </mxCell>
        <mxCell id="Oci5rgU2LHDsX-qW9czk-26" value="dApp web interface" style="text;html=1;strokeColor=none;fillColor=none;align=center;verticalAlign=middle;whiteSpace=wrap;rounded=0;" parent="Oci5rgU2LHDsX-qW9czk-27" vertex="1">
          <mxGeometry x="9.75" y="107.06" width="110.5" height="22.94" as="geometry" />
        </mxCell>
        <mxCell id="6cK30qrrgWEB5mEtdJcq-12" style="edgeStyle=orthogonalEdgeStyle;rounded=0;orthogonalLoop=1;jettySize=auto;html=1;exitX=0.5;exitY=1;exitDx=0;exitDy=0;entryX=0.5;entryY=0;entryDx=0;entryDy=0;" edge="1" parent="1" source="Oci5rgU2LHDsX-qW9czk-12" target="6cK30qrrgWEB5mEtdJcq-14">
          <mxGeometry relative="1" as="geometry">
            <mxPoint x="575" y="-1010" as="targetPoint" />
          </mxGeometry>
        </mxCell>
        <mxCell id="6cK30qrrgWEB5mEtdJcq-15" style="edgeStyle=orthogonalEdgeStyle;rounded=0;orthogonalLoop=1;jettySize=auto;html=1;exitX=0.5;exitY=1;exitDx=0;exitDy=0;entryX=0.5;entryY=0;entryDx=0;entryDy=0;" edge="1" parent="1" source="6cK30qrrgWEB5mEtdJcq-14" target="Oci5rgU2LHDsX-qW9czk-1">
          <mxGeometry relative="1" as="geometry" />
        </mxCell>
        <mxCell id="6cK30qrrgWEB5mEtdJcq-14" value="dApp admin web interface" style="rounded=0;whiteSpace=wrap;html=1;dashed=1;dashPattern=1 2;" vertex="1" parent="1">
          <mxGeometry x="515" y="-950" width="120" height="60" as="geometry" />
        </mxCell>
        <mxCell id="6cK30qrrgWEB5mEtdJcq-29" value="" style="rounded=0;whiteSpace=wrap;html=1;dashed=1;dashPattern=1 2;" vertex="1" parent="1">
          <mxGeometry x="515" y="-540" width="120" height="110" as="geometry" />
        </mxCell>
        <mxCell id="6cK30qrrgWEB5mEtdJcq-16" value="" style="shape=image;verticalLabelPosition=bottom;labelBackgroundColor=default;verticalAlign=top;aspect=fixed;imageAspect=0;image=https://g.foolcdn.com/art/companylogos/square/link.png;dashed=1;dashPattern=1 2;" vertex="1" parent="1">
          <mxGeometry x="526" y="-530" width="100" height="100" as="geometry" />
        </mxCell>
        <mxCell id="6cK30qrrgWEB5mEtdJcq-17" value="Oracle: Price feed" style="edgeStyle=orthogonalEdgeStyle;rounded=0;orthogonalLoop=1;jettySize=auto;html=1;exitX=0.5;exitY=1;exitDx=0;exitDy=0;dashed=1;dashPattern=1 2;entryX=0.5;entryY=0;entryDx=0;entryDy=0;" edge="1" parent="1" source="Oci5rgU2LHDsX-qW9czk-2" target="6cK30qrrgWEB5mEtdJcq-29">
          <mxGeometry relative="1" as="geometry">
            <mxPoint x="580" y="-560" as="targetPoint" />
          </mxGeometry>
        </mxCell>
        <mxCell id="6cK30qrrgWEB5mEtdJcq-28" value="" style="group" vertex="1" connectable="0" parent="1">
          <mxGeometry x="90" y="-1170" width="140" height="70" as="geometry" />
        </mxCell>
        <mxCell id="6cK30qrrgWEB5mEtdJcq-24" value="" style="rounded=0;whiteSpace=wrap;html=1;dashed=1;dashPattern=1 2;" vertex="1" parent="6cK30qrrgWEB5mEtdJcq-28">
          <mxGeometry width="140" height="70" as="geometry" />
        </mxCell>
        <mxCell id="6cK30qrrgWEB5mEtdJcq-23" value="Legend" style="text;html=1;strokeColor=none;fillColor=none;align=center;verticalAlign=middle;whiteSpace=wrap;rounded=0;dashed=1;dashPattern=1 2;fontStyle=1" vertex="1" parent="6cK30qrrgWEB5mEtdJcq-28">
          <mxGeometry width="60" height="30" as="geometry" />
        </mxCell>
        <mxCell id="6cK30qrrgWEB5mEtdJcq-26" value="" style="endArrow=none;dashed=1;html=1;rounded=0;dashPattern=1 2;" edge="1" parent="6cK30qrrgWEB5mEtdJcq-28">
          <mxGeometry width="50" height="50" relative="1" as="geometry">
            <mxPoint x="20" y="44.38000000000011" as="sourcePoint" />
            <mxPoint x="50" y="44.38000000000011" as="targetPoint" />
          </mxGeometry>
        </mxCell>
        <mxCell id="6cK30qrrgWEB5mEtdJcq-27" value="For future" style="text;html=1;strokeColor=none;fillColor=none;align=center;verticalAlign=middle;whiteSpace=wrap;rounded=0;dashed=1;dashPattern=1 2;" vertex="1" parent="6cK30qrrgWEB5mEtdJcq-28">
          <mxGeometry x="60" y="30" width="60" height="30" as="geometry" />
        </mxCell>
      </root>
    </mxGraphModel>
  </diagram>
</mxfile>
